<svg width="48" height="48" viewBox="0 0 48 48" fill="none" xmlns="http://www.w3.org/2000/svg">
<path d="M8.955 44.775H26.865C27.6564 44.7741 28.4151 44.4593 28.9747 43.8997C29.5343 43.3401 29.8491 42.5814 29.85 41.79V37.3125H26.865V41.79H8.955V5.97H26.865V10.4475H29.85V5.97C29.8491 5.17861 29.5343 4.41989 28.9747 3.86029C28.4151 3.30069 27.6564 2.98591 26.865 2.985H8.955C8.16361 2.98591 7.40489 3.30069 6.84529 3.86029C6.28569 4.41989 5.97091 5.17861 5.97 5.97V41.79C5.97091 42.5814 6.28569 43.3401 6.84529 43.8997C7.40489 44.4593 8.16361 44.7741 8.955 44.775Z" fill="black"/>
<path d="M30.7246 30.7246L36.0767 25.3725H14.925V22.3875H36.0767L30.7246 17.0354L32.835 14.925L41.79 23.88L32.835 32.835L30.7246 30.7246Z" fill="black"/>
</svg>
